<?xml version="1.0" encoding="utf-8"?>
<!-- Generator: Adobe Illustrator 24.3.0, SVG Export Plug-In . SVG Version: 6.00 Build 0)  -->
<svg version="1.1" id="Layer_1" xmlns="http://www.w3.org/2000/svg" xmlns:xlink="http://www.w3.org/1999/xlink" x="0px" y="0px"
	 viewBox="0 0 500 500" style="enable-background:new 0 0 500 500;" xml:space="preserve">
<style type="text/css">
	.st0{fill:none;stroke:#ffffff;stroke-width: 10;stroke-miterlimit:10;}
	.circle{
		fill: #ffffff;
	}
</style>
<path class="st0" d="M450,298.5h-23.6v137.3c0,13.4-13.4,24.3-29.9,24.3h-104v-91.1c0-23.7-19-42.9-42.5-42.9s-42.5,19.2-42.5,42.9
	V460h-104c-16.5,0-29.9-10.9-29.9-24.3V298.5H50c-19.2,0-31.2-13.6-21.6-24.4l200-225.9c9.6-10.9,33.6-10.9,43.2,0l200,225.9
	C481.2,284.9,469.2,298.5,450,298.5z"/>
<ellipse  class="circle" cx="250" cy="207.1" rx="42.5" ry="42.9"/>
</svg>
