<?xml version="1.0" encoding="utf-8"?>
<!-- Generator: Adobe Illustrator 24.3.0, SVG Export Plug-In . SVG Version: 6.00 Build 0)  -->
<svg version="1.1" id="Layer_1" xmlns="http://www.w3.org/2000/svg" xmlns:xlink="http://www.w3.org/1999/xlink" x="0px" y="0px"
	 viewBox="0 0 500 500" style="enable-background:new 0 0 500 500;" xml:space="preserve">
<style type="text/css">
	.st0{fill:none;stroke:#FFFFFF;stroke-width:5;stroke-miterlimit:10;}
	.st1{fill:none;stroke:#FFFFFF;stroke-width:10;stroke-miterlimit:10;}
	.st2{fill:#7FCDE5;stroke:#FFFFFF;stroke-miterlimit:10;}
	.st3{stroke:#FFFFFF;stroke-width:10;stroke-miterlimit:10;}
</style>
<path class="st0" d="M334.8,163.6C334.8,163.6,334.8,163.6,334.8,163.6c-56.4-18.2-110.6-19.2-168.2-1.3
	C144,184,130,214.6,130,248.5c0,37.8,17.4,71.4,44.7,93.4l0,0c53.3,14.8,104.6,10.6,162.9-11.4c20.2-21.5,32.5-50.3,32.5-82.1
	C370,215.3,356.5,185.3,334.8,163.6z M250,306.4c-32,0-57.8-25.9-57.8-57.8c0-3.3,0.3-6.6,0.8-9.7c6.1,6,14.4,9.7,23.6,9.7
	c18.5,0,33.5-15,33.5-33.5c0-9.2-3.7-17.5-9.7-23.6c3.2-0.5,6.4-0.8,9.7-0.8c32,0,57.8,25.9,57.8,57.8
	C307.8,280.5,282,306.4,250,306.4z"/>
<path class="st0" d="M174.7,342c-50.3-14-102.4-44.8-163.7-93.4c56.4-42.8,107.2-71.2,155.7-86.3C144,184,130,214.6,130,248.5
	C130,286.3,147.4,319.9,174.7,342L174.7,342z"/>
<path class="st1" d="M307.8,248.5c0,32-25.9,57.8-57.8,57.8s-57.8-25.9-57.8-57.8c0-3.3,0.3-6.6,0.8-9.7c6.1,6,14.4,9.7,23.6,9.7
	c18.5,0,33.5-15,33.5-33.5c0-9.2-3.7-17.5-9.7-23.6c3.2-0.5,6.4-0.8,9.7-0.8C282,190.7,307.8,216.6,307.8,248.5z"/>
<path class="st0" d="M337.5,330.6c20.2-21.5,32.5-50.3,32.5-82.1c0-33.2-13.5-63.2-35.2-85c48.7,15.8,99,44.4,154.3,85
	C431.7,286.1,382.5,313.7,337.5,330.6z"/>
<path class="st2" d="M307.8,248.5c0,32-25.9,57.8-57.8,57.8s-57.8-25.9-57.8-57.8c0-3.3,0.3-6.6,0.8-9.7c6.1,6,14.4,9.7,23.6,9.7
	c18.5,0,33.5-15,33.5-33.5c0-9.2-3.7-17.5-9.7-23.6c3.2-0.5,6.4-0.8,9.7-0.8C282,190.7,307.8,216.6,307.8,248.5z"/>
<line id="cross" class="st3" x1="489.1" y1="350.7" x2="10.9" y2="149.3"/>
</svg>
