<svg height="410pt" viewBox="0 -24 410.05758 410" width="410pt" xmlns="http://www.w3.org/2000/svg"><path d="m350.074219 181.320312 58.167969-58.167968c2.289062-2.351563 2.265624-6.105469-.058594-8.425782-2.320313-2.320312-6.074219-2.347656-8.425782-.058593l-58.167968 58.167969-58.167969-58.167969c-2.347656-2.3125-6.121094-2.296875-8.449219.035156-2.328125 2.328125-2.34375 6.101563-.035156 8.449219l58.167969 58.167968-58.167969 58.167969c-1.535156 1.511719-2.144531 3.730469-1.589844 5.8125.550782 2.082031 2.179688 3.710938 4.261719 4.261719 2.082031.554688 4.300781-.054688 5.8125-1.589844l58.167969-58.167968 58.167968 58.167968c1.507813 1.550782 3.734376 2.167969 5.828126 1.617188 2.089843-.550782 3.722656-2.183594 4.273437-4.277344.550781-2.089844-.066406-4.316406-1.617187-5.824219zm0 0"/><path d="m34 260.949219h41.644531c2.113281 0 4.070313 1.109375 5.152344 2.921875l140.460937 98.738281v-362.5820312l-140.457031 98.7421872c-1.085937 1.808594-3.039062 2.917969-5.152343 2.917969h-41.648438c-18.769531.023438-33.9804688 15.230469-34 34v91.261719c.0195312 18.769531 15.230469 33.980469 34 34zm0 0"/></svg>