<?xml version="1.0" encoding="utf-8"?>
<!-- Generator: Adobe Illustrator 24.3.0, SVG Export Plug-In . SVG Version: 6.00 Build 0)  -->
<svg version="1.1" xmlns="http://www.w3.org/2000/svg" xmlns:xlink="http://www.w3.org/1999/xlink" x="0px" y="0px"
	 viewBox="0 0 500 500" style="enable-background:new 0 0 500 500;" xml:space="preserve">
<style type="text/css">
	.st1{fill:none;stroke:#ffffff;stroke-width: 10;stroke-miterlimit:10;}
	.white {
		fill: #ffffff;
	}
</style>
<g id="Layer_1">
	<g>
		<path class="st1" d="M65.9,325.3c2.2-19.2,21.4-48.1,21.4-48.1c56.4-32,72.5-68,72.5-68C203.4,91,292.9,51.7,326.1,62.9
			c7.4-20.7,16.3-20.7,16.3-20.7L352.8,20c27.3-4.4,34.7,11.8,34.7,11.8l-6.6,26.6c7.4,6.9-0.8,25.1-0.8,25.1
			c30.3,11.8,71.7,79.8,45.8,180.4c-25.9,100.5,4.5,123.4,4.2,133.8c-0.3,10.4-11.6,45.1-11.6,45.1s3.9-35-102.7-82.2
			c-8.8-3.9-18.3-7.8-28.6-11.9c-15.2-6-32.3-12.1-51.3-18.3"/>
		<path class="st1" d="M235.9,330.5c19,6.2,36,12.3,51.3,18.3v74.5c-9.6,5.1-16.2,15.3-16.2,27c-38-9.9-72.4-21.8-87.5-28.1
			c-41.4-17-117.5-63.7-117.5-96.8C68.5,280.3,235.9,330.5,235.9,330.5z"/>
		<path class="st1" d="M418.5,442.8c0,0,0,20.6-89.2,19.9c1.7-3.8,2.7-8,2.7-12.5c0-11.7-6.6-21.9-16.2-27v-62.6"/>
		<path class="st1 white" d="M332,450.2c0,4.5-1,8.7-2.7,12.5c-4.8,10.7-15.5,18.1-27.9,18.1c-16.9,0-30.6-13.7-30.6-30.6v0
			c0-11.7,6.6-21.8,16.2-27v-74.5c10.3,4,19.8,8,28.6,11.9v62.6C325.5,428.4,332,438.5,332,450.2z"/>
		<path class="st1" d="M430.1,397.7C372,311.5,145.4,248.1,87.3,277.2"/>
	</g>
</g>
</svg>
