<svg fill="none" height="512" viewBox="0 0 24 24" width="512" xmlns="http://www.w3.org/2000/svg"><g clip-rule="evenodd" fill-rule="evenodd"><path d="m15.25 4c0-.41421.3358-.75.75-.75 3.1756 0 5.75 2.57436 5.75 5.75 0 .41421-.3358.75-.75.75s-.75-.33579-.75-.75c0-2.0913-1.5105-3.8298-3.5-4.18403v12.68403c0 .4142-.3358.75-.75.75s-.75-.3358-.75-.75z" fill="#4caf50"/><path d="m2.25 4c0-.41421.33579-.75.75-.75h10c.4142 0 .75.33579.75.75s-.3358.75-.75.75h-10c-.41421 0-.75-.33579-.75-.75z" fill="#486472"/><path d="m2.25 7c0-.41421.33579-.75.75-.75h10c.4142 0 .75.33579.75.75s-.3358.75-.75.75h-10c-.41421 0-.75-.33579-.75-.75z" fill="#486472"/><path d="m2.25 10c0-.41421.33579-.75.75-.75h5c.41421 0 .75.33579.75.75 0 .4142-.33579.75-.75.75h-5c-.41421 0-.75-.3358-.75-.75z" fill="#486472"/></g><path d="m13 14.25c-2.0711 0-3.75 1.6789-3.75 3.75s1.6789 3.75 3.75 3.75 3.75-1.6789 3.75-3.75-1.6789-3.75-3.75-3.75z" fill="#4caf50"/><path clip-rule="evenodd" d="m13 14.25v7.5c-2.0711 0-3.75-1.6789-3.75-3.75s1.6789-3.75 3.75-3.75z" fill="#39943c" fill-rule="evenodd"/><path clip-rule="evenodd" d="m13.75 4h-11.5c0 .41421.33579.75.75.75h10c.4142 0 .75-.33579.75-.75z" fill="#354d58" fill-rule="evenodd"/><path clip-rule="evenodd" d="m13.75 7h-11.5c0 .41421.33579.75.75.75h10c.4142 0 .75-.33579.75-.75z" fill="#354d58" fill-rule="evenodd"/><path clip-rule="evenodd" d="m8.75 10h-6.5c0 .4142.33579.75.75.75h5c.41421 0 .75-.3358.75-.75z" fill="#354d58" fill-rule="evenodd"/></svg>