<svg fill="none" height="512" viewBox="0 0 24 24" width="512" xmlns="http://www.w3.org/2000/svg">
<g fill="rgb(0,0,255)">
<path d="m2.5 12c0 5.2467 4.25329 9.5 9.5 9.5.2761 0 .5.2239.5.5s-.2239.5-.5.5c-5.79899 0-10.5-4.701-10.5-10.5 0-5.79899 4.70101-10.5 10.5-10.5 5.799 0 10.5 4.70101 10.5 10.5 0 .2761-.2239.5-.5.5s-.5-.2239-.5-.5c0-5.24671-4.2533-9.5-9.5-9.5-5.24671 0-9.5 4.25329-9.5 9.5z"/><path clip-rule="evenodd" d="m12 8.5c-1.933 0-3.5 1.567-3.5 3.5s1.567 3.5 3.5 3.5 3.5-1.567 3.5-3.5-1.567-3.5-3.5-3.5zm-2.5 3.5c0-1.3807 1.1193-2.5 2.5-2.5s2.5 1.1193 2.5 2.5-1.1193 2.5-2.5 2.5-2.5-1.1193-2.5-2.5z" fill-rule="evenodd"/><path d="m20.8322 18.6237c-.2064.1835-.5225.1649-.7059-.0415l-1.1263-1.2671v4.6849c0 .2761-.2239.5-.5.5s-.5-.2239-.5-.5v-4.6849l-1.1263 1.2671c-.1835.2064-.4995.225-.7059.0415s-.225-.4995-.0415-.7059l2-2.25c.0949-.1067.2309-.1678.3737-.1678s.2788.0611.3737.1678l2 2.25c.1835.2064.1649.5224-.0415.7059z"/></g></svg>