<svg height="362pt" viewBox="-1 0 362 362.582" width="362pt" xmlns="http://www.w3.org/2000/svg"><path d="m274.496094 255.082031c-3.3125 0-6 2.6875-6 6 0 3.316407 2.6875 6 6 6 47.382812 0 85.792968-38.410156 85.792968-85.792969 0-47.378906-38.410156-85.789062-85.792968-85.789062-3.3125 0-6 2.683594-6 6 0 3.3125 2.6875 6 6 6 40.757812 0 73.792968 33.035156 73.792968 73.789062 0 40.757813-33.035156 73.792969-73.792968 73.792969zm0 0"/><path d="m34.289062 260.921875h41.648438c2.109375 0 4.066406 1.109375 5.152344 2.921875l140.457031 98.738281v-362.582031l-140.457031 98.738281c-1.082032 1.8125-3.039063 2.921875-5.148438 2.921875h-41.652344c-18.765624.019532-33.976562 15.230469-34 34v91.261719c.023438 18.769531 15.234376 33.980469 34 34zm0 0"/></svg>