<?xml version="1.0" encoding="utf-8"?>
<!-- Generator: Adobe Illustrator 25.2.1, SVG Export Plug-In . SVG Version: 6.00 Build 0)  -->
<svg version="1.1" id="Layer_1" xmlns="http://www.w3.org/2000/svg" xmlns:xlink="http://www.w3.org/1999/xlink" x="0px" y="0px"
	 viewBox="0 0 500 500" style="enable-background:new 0 0 500 500;" xml:space="preserve">
<style type="text/css">
	.st0{fill:none;stroke:#000000;stroke-width:10;stroke-miterlimit:10;}
	.st1{fill:none;}
</style>
<g>
	<path class="st0" d="M108.22,154.85v190.3H37.43c-6.18,0-11.19-5.01-11.19-11.19V166.04c0-6.18,5.01-11.19,11.19-11.19
		L108.22,154.85L108.22,154.85z"/>
	<path class="st0" d="M293.99,72.3v355.4c0,10.77-11.66,17.5-20.99,12.12l-164.79-95.15V155.32L273,60.19
		C282.34,54.8,293.99,61.53,293.99,72.3z"/>
</g>
<g>
	<path class="st0" d="M311.03,332.29c45.45,0,82.29-36.84,82.29-82.29s-36.84-82.29-82.29-82.29"/>
	<path class="st0" d="M311.03,363.52c62.69,0,113.52-50.82,113.52-113.52s-50.82-113.52-113.52-113.52"/>
	<path class="st0" d="M311.03,394.17c79.62,0,144.17-64.55,144.17-144.17s-64.55-144.17-144.17-144.17"/>
</g>
<g>
	<line class="st1" x1="473" y1="156.14" x2="311.03" y2="318.11"/>
	<line class="st1" x1="312.5" y1="156.14" x2="473" y2="316.64"/>
</g>
</svg>
